<svg width="24" height="24" viewBox="0 0 24 24" fill="none" xmlns="http://www.w3.org/2000/svg">
<path fill-rule="evenodd" clip-rule="evenodd" d="M0.673261 4.90524C0.673261 3.30072 1.97398 2 3.5785 2H15.9527C17.5572 2 18.8579 3.30072 18.8579 4.90524V12.9753C18.8579 14.5799 17.5572 15.8806 15.9527 15.8806H5.47115L0.673261 19.9931V12.9753C0.673261 12.5594 1.01048 12.2221 1.42647 12.2221C1.84246 12.2221 2.17968 12.5594 2.17968 12.9753V16.7178L4.91389 14.3742H15.9527C16.7252 14.3742 17.3515 13.7479 17.3515 12.9753V4.90524C17.3515 4.13269 16.7252 3.50642 15.9527 3.50642H3.5785C2.80595 3.50642 2.17968 4.13269 2.17968 4.90524V7.59527C2.17968 8.01126 1.84246 8.34848 1.42647 8.34848C1.01048 8.34848 0.673261 8.01126 0.673261 7.59527V4.90524ZM20.2861 5.98125C20.2861 5.56526 20.6233 5.22804 21.0393 5.22804H23.7V17.4976C23.7 19.1022 22.3992 20.4029 20.7947 20.4029H8.20536V17.9711C8.20536 17.5551 8.54258 17.2179 8.95856 17.2179C9.37455 17.2179 9.71177 17.5551 9.71177 17.9711V18.8965H20.7947C21.5673 18.8965 22.1935 18.2702 22.1935 17.4976V6.73446H21.0393C20.6233 6.73446 20.2861 6.39724 20.2861 5.98125ZM1.33082 11.6004C1.99112 11.6004 2.5264 11.0651 2.5264 10.4048C2.5264 9.74451 1.99112 9.20924 1.33082 9.20924C0.670529 9.20924 0.135254 9.74451 0.135254 10.4048C0.135254 11.0651 0.670529 11.6004 1.33082 11.6004Z" fill="#009AFF"/>
</svg>
