<svg width="25" height="24" viewBox="0 0 25 24" fill="none" xmlns="http://www.w3.org/2000/svg">
<path fill-rule="evenodd" clip-rule="evenodd" d="M1.81519 4.45789C1.81519 2.58287 3.33312 1.06494 5.20813 1.06494H20.2972C22.1722 1.06494 23.6901 2.58287 23.6901 4.45789V19.111C23.6901 19.561 23.3253 19.9258 22.8753 19.9258C22.4253 19.9258 22.0605 19.561 22.0605 19.111V4.45789C22.0605 3.4829 21.2722 2.69458 20.2972 2.69458H5.20813C4.23314 2.69458 3.44482 3.4829 3.44482 4.45789V19.5469C3.44482 20.5219 4.23314 21.3103 5.20813 21.3103H19.8425C20.2925 21.3103 20.6573 21.6751 20.6573 22.1251C20.6573 22.5751 20.2925 22.9399 19.8425 22.9399H5.20813C3.33312 22.9399 1.81519 21.422 1.81519 19.5469V4.45789Z" fill="#8A8A8A"/>
<path fill-rule="evenodd" clip-rule="evenodd" d="M9.7749 7.83728C9.7749 7.38727 10.1397 7.02246 10.5897 7.02246H18.1272C18.5772 7.02246 18.942 7.38727 18.942 7.83728C18.942 8.28729 18.5772 8.6521 18.1272 8.6521H10.5897C10.1397 8.6521 9.7749 8.28729 9.7749 7.83728Z" fill="#8A8A8A"/>
<path fill-rule="evenodd" clip-rule="evenodd" d="M6.55884 7.83728C6.55884 7.38727 6.92365 7.02246 7.37366 7.02246H7.57053C8.02055 7.02246 8.38535 7.38727 8.38535 7.83728C8.38535 8.28729 8.02055 8.6521 7.57053 8.6521H7.37366C6.92365 8.6521 6.55884 8.28729 6.55884 7.83728Z" fill="#8A8A8A"/>
<path fill-rule="evenodd" clip-rule="evenodd" d="M9.7749 11.9999C9.7749 11.5499 10.1397 11.1851 10.5897 11.1851H18.1272C18.5772 11.1851 18.942 11.5499 18.942 11.9999C18.942 12.4499 18.5772 12.8147 18.1272 12.8147H10.5897C10.1397 12.8147 9.7749 12.4499 9.7749 11.9999Z" fill="#8A8A8A"/>
<path fill-rule="evenodd" clip-rule="evenodd" d="M6.55884 11.9999C6.55884 11.5499 6.92365 11.1851 7.37366 11.1851H7.57053C8.02055 11.1851 8.38535 11.5499 8.38535 11.9999C8.38535 12.4499 8.02055 12.8147 7.57053 12.8147H7.37366C6.92365 12.8147 6.55884 12.4499 6.55884 11.9999Z" fill="#8A8A8A"/>
<path fill-rule="evenodd" clip-rule="evenodd" d="M9.7749 16.162C9.7749 15.712 10.1397 15.3472 10.5897 15.3472H18.1272C18.5772 15.3472 18.942 15.712 18.942 16.162C18.942 16.612 18.5772 16.9768 18.1272 16.9768H10.5897C10.1397 16.9768 9.7749 16.612 9.7749 16.162Z" fill="#8A8A8A"/>
<path fill-rule="evenodd" clip-rule="evenodd" d="M6.55884 16.162C6.55884 15.712 6.92365 15.3472 7.37366 15.3472H7.57053C8.02055 15.3472 8.38535 15.712 8.38535 16.162C8.38535 16.612 8.02055 16.9768 7.57053 16.9768H7.37366C6.92365 16.9768 6.55884 16.612 6.55884 16.162Z" fill="#8A8A8A"/>
</svg>
