<svg width="24" height="24" viewBox="0 0 24 24" fill="none" xmlns="http://www.w3.org/2000/svg">
<path fill-rule="evenodd" clip-rule="evenodd" d="M1.06519 4.45789C1.06519 2.58287 2.58312 1.06494 4.45813 1.06494H19.5472C21.4222 1.06494 22.9401 2.58287 22.9401 4.45789V19.111C22.9401 19.561 22.5753 19.9258 22.1253 19.9258C21.6753 19.9258 21.3105 19.561 21.3105 19.111V4.45789C21.3105 3.4829 20.5222 2.69458 19.5472 2.69458H4.45813C3.48314 2.69458 2.69482 3.4829 2.69482 4.45789V19.5469C2.69482 20.5219 3.48314 21.3103 4.45813 21.3103H19.0925C19.5425 21.3103 19.9073 21.6751 19.9073 22.1251C19.9073 22.5751 19.5425 22.9399 19.0925 22.9399H4.45813C2.58312 22.9399 1.06519 21.422 1.06519 19.5469V4.45789Z" fill="#009AFF"/>
<path fill-rule="evenodd" clip-rule="evenodd" d="M9.0249 7.83728C9.0249 7.38727 9.38971 7.02246 9.83972 7.02246H17.3772C17.8272 7.02246 18.192 7.38727 18.192 7.83728C18.192 8.28729 17.8272 8.6521 17.3772 8.6521H9.83972C9.38971 8.6521 9.0249 8.28729 9.0249 7.83728Z" fill="#009AFF"/>
<path fill-rule="evenodd" clip-rule="evenodd" d="M5.80884 7.83728C5.80884 7.38727 6.17365 7.02246 6.62366 7.02246H6.82053C7.27055 7.02246 7.63535 7.38727 7.63535 7.83728C7.63535 8.28729 7.27055 8.6521 6.82053 8.6521H6.62366C6.17365 8.6521 5.80884 8.28729 5.80884 7.83728Z" fill="#009AFF"/>
<path fill-rule="evenodd" clip-rule="evenodd" d="M9.0249 11.9999C9.0249 11.5499 9.38971 11.1851 9.83972 11.1851H17.3772C17.8272 11.1851 18.192 11.5499 18.192 11.9999C18.192 12.4499 17.8272 12.8147 17.3772 12.8147H9.83972C9.38971 12.8147 9.0249 12.4499 9.0249 11.9999Z" fill="#009AFF"/>
<path fill-rule="evenodd" clip-rule="evenodd" d="M5.80884 11.9999C5.80884 11.5499 6.17365 11.1851 6.62366 11.1851H6.82053C7.27055 11.1851 7.63535 11.5499 7.63535 11.9999C7.63535 12.4499 7.27055 12.8147 6.82053 12.8147H6.62366C6.17365 12.8147 5.80884 12.4499 5.80884 11.9999Z" fill="#009AFF"/>
<path fill-rule="evenodd" clip-rule="evenodd" d="M9.0249 16.162C9.0249 15.712 9.38971 15.3472 9.83972 15.3472H17.3772C17.8272 15.3472 18.192 15.712 18.192 16.162C18.192 16.612 17.8272 16.9768 17.3772 16.9768H9.83972C9.38971 16.9768 9.0249 16.612 9.0249 16.162Z" fill="#009AFF"/>
<path fill-rule="evenodd" clip-rule="evenodd" d="M5.80884 16.162C5.80884 15.712 6.17365 15.3472 6.62366 15.3472H6.82053C7.27055 15.3472 7.63535 15.712 7.63535 16.162C7.63535 16.612 7.27055 16.9768 6.82053 16.9768H6.62366C6.17365 16.9768 5.80884 16.612 5.80884 16.162Z" fill="#009AFF"/>
</svg>
