<svg width="25" height="24" viewBox="0 0 25 24" fill="none" xmlns="http://www.w3.org/2000/svg">
<path fill-rule="evenodd" clip-rule="evenodd" d="M2.38623 22.1529C2.38623 16.7048 6.80199 12.2891 12.2501 12.2891C17.6981 12.2891 22.1139 16.7048 22.1139 22.1529C22.1139 22.6041 21.7481 22.9698 21.2969 22.9698C20.8457 22.9698 20.48 22.6041 20.48 22.1529C20.48 17.6072 16.7957 13.923 12.2501 13.923C7.98007 13.923 4.4702 17.1739 4.06016 21.3359H12.2501C12.7012 21.3359 13.067 21.7017 13.067 22.1529C13.067 22.6041 12.7012 22.9698 12.2501 22.9698H3.20318C2.75199 22.9698 2.38623 22.6041 2.38623 22.1529Z" fill="#8A8A8A"/>
<path fill-rule="evenodd" clip-rule="evenodd" d="M12.2501 2.66369C9.72409 2.66369 7.67638 4.71139 7.67638 7.23736C7.67638 9.76333 9.72409 11.811 12.2501 11.811C14.776 11.811 16.8237 9.76333 16.8237 7.23736C16.8237 4.71139 14.776 2.66369 12.2501 2.66369ZM6.04248 7.23736C6.04248 3.80901 8.82171 1.02979 12.2501 1.02979C15.6784 1.02979 18.4576 3.80901 18.4576 7.23736C18.4576 10.6657 15.6784 13.4449 12.2501 13.4449C8.82171 13.4449 6.04248 10.6657 6.04248 7.23736Z" fill="#8A8A8A"/>
</svg>
