<svg width="25" height="24" viewBox="0 0 25 24" fill="none" xmlns="http://www.w3.org/2000/svg">
<path fill-rule="evenodd" clip-rule="evenodd" d="M2.38599 22.1529C2.38599 16.7048 6.80175 12.2891 12.2498 12.2891C17.6979 12.2891 22.1136 16.7048 22.1136 22.1529C22.1136 22.6041 21.7479 22.9698 21.2967 22.9698C20.8455 22.9698 20.4797 22.6041 20.4797 22.1529C20.4797 17.6072 16.7955 13.923 12.2498 13.923C7.97982 13.923 4.46996 17.1739 4.05992 21.3359H12.2498C12.701 21.3359 13.0668 21.7017 13.0668 22.1529C13.0668 22.6041 12.701 22.9698 12.2498 22.9698H3.20294C2.75175 22.9698 2.38599 22.6041 2.38599 22.1529Z" fill="#009AFF"/>
<path fill-rule="evenodd" clip-rule="evenodd" d="M12.2498 2.66369C9.72384 2.66369 7.67614 4.71139 7.67614 7.23736C7.67614 9.76333 9.72384 11.811 12.2498 11.811C14.7758 11.811 16.8235 9.76333 16.8235 7.23736C16.8235 4.71139 14.7758 2.66369 12.2498 2.66369ZM6.04224 7.23736C6.04224 3.80901 8.82146 1.02979 12.2498 1.02979C15.6782 1.02979 18.4574 3.80901 18.4574 7.23736C18.4574 10.6657 15.6782 13.4449 12.2498 13.4449C8.82146 13.4449 6.04224 10.6657 6.04224 7.23736Z" fill="#009AFF"/>
</svg>
