<svg width="25" height="24" viewBox="0 0 25 24" fill="none" xmlns="http://www.w3.org/2000/svg">
<path fill-rule="evenodd" clip-rule="evenodd" d="M9.43472 2.6464C6.77599 2.6464 4.62321 4.80313 4.62321 7.45792V16.547C4.62321 19.2057 6.77993 21.3585 9.43472 21.3585C12.0935 21.3585 14.2462 19.2018 14.2462 16.547V10.3876C14.2462 10.0186 14.5454 9.71943 14.9144 9.71943C15.2834 9.71943 15.5826 10.0186 15.5826 10.3876V16.547C15.5826 19.9391 12.8322 22.6948 9.43472 22.6948C6.04264 22.6948 3.28687 19.9445 3.28687 16.547V7.45792C3.28687 4.06583 6.03721 1.31006 9.43472 1.31006C12.8268 1.31006 15.5826 4.0604 15.5826 7.45792V8.25948C15.5826 8.6285 15.2834 8.92765 14.9144 8.92765C14.5454 8.92765 14.2462 8.6285 14.2462 8.25948V7.45792C14.2462 4.79918 12.0895 2.6464 9.43472 2.6464Z" fill="#8A8A8A"/>
<path d="M10.5833 18.3143L10.1942 17.0064C10.1567 16.8799 10.1708 16.7299 10.2598 16.6314C10.4286 16.4393 10.5317 16.1908 10.5317 15.9143C10.5317 15.3096 10.0395 14.8174 9.43481 14.8174C8.83012 14.8174 8.33793 15.3096 8.33793 15.9143C8.33793 16.1908 8.44106 16.4393 8.60981 16.6314C8.69887 16.7299 8.71293 16.8799 8.67543 17.0064L8.28637 18.3143C8.20668 18.5814 8.40825 18.8486 8.68481 18.8486H9.43481H10.1848C10.4614 18.8486 10.6629 18.5814 10.5833 18.3143Z" fill="#8A8A8A"/>
<path fill-rule="evenodd" clip-rule="evenodd" d="M9.39733 6.35392C7.82983 6.35392 6.55924 7.62098 6.55924 9.19201C6.55924 10.7654 7.83215 12.0395 9.39733 12.0395C9.75778 12.0395 10.0994 11.9684 10.4169 11.8398C10.759 11.7014 11.1485 11.8664 11.287 12.2085C11.4255 12.5506 11.2604 12.9401 10.9183 13.0786C10.4484 13.2688 9.93688 13.3758 9.39733 13.3758C7.09063 13.3758 5.2229 11.4999 5.2229 9.19201C5.2229 6.88177 7.09295 5.01758 9.39733 5.01758C11.2668 5.01758 12.8513 6.24533 13.3818 7.93742C13.4922 8.28954 13.2962 8.66448 12.9441 8.77489C12.592 8.88529 12.217 8.68933 12.1066 8.33721C11.7465 7.18868 10.6685 6.35392 9.39733 6.35392Z" fill="#8A8A8A"/>
<path fill-rule="evenodd" clip-rule="evenodd" d="M9.8421 8.92765C9.62518 8.92765 9.4462 9.10663 9.4462 9.32355C9.4462 9.54046 9.62518 9.71944 9.8421 9.71944H17.703C18.0721 9.71944 18.3712 10.0186 18.3712 10.3876C18.3712 10.7566 18.0721 11.0558 17.703 11.0558H9.8421C8.88714 11.0558 8.10986 10.2785 8.10986 9.32355C8.10986 8.36859 8.88714 7.59131 9.8421 7.59131H19.9765C20.9314 7.59131 21.7087 8.36858 21.7087 9.32355C21.7087 9.70248 21.587 10.0555 21.3787 10.3409C21.1612 10.6389 20.7432 10.7043 20.4451 10.4867C20.147 10.2692 20.0817 9.85121 20.2992 9.55312C20.3441 9.49162 20.3724 9.41336 20.3724 9.32355C20.3724 9.10663 20.1934 8.92765 19.9765 8.92765H9.8421Z" fill="#8A8A8A"/>
<path fill-rule="evenodd" clip-rule="evenodd" d="M12.2353 9.9391C12.6021 9.89884 12.9321 10.1636 12.9724 10.5304L13.2677 13.221C13.2704 13.2452 13.2717 13.2696 13.2717 13.2939V13.2986C13.2717 13.5237 13.1584 13.7336 12.9702 13.8572C12.7821 13.9807 12.5443 14.0012 12.3378 13.9117L10.4019 13.0726C10.0633 12.9259 9.90779 12.5324 10.0545 12.1938C10.2013 11.8552 10.5947 11.6997 10.9333 11.8465L11.8144 12.2284L11.644 10.6762C11.6038 10.3094 11.8685 9.97937 12.2353 9.9391Z" fill="#8A8A8A"/>
</svg>
